<svg xmlns="http://www.w3.org/2000/svg" viewBox="0 0 600 450" role="img">
  <defs>
    <linearGradient id="bg" x1="0" y1="0" x2="1" y2="1">
      <stop offset="0" stop-color="#dcfce7"/><stop offset="1" stop-color="#bbf7d0"/>
    </linearGradient>
  </defs>
  <rect width="600" height="450" fill="url(#bg)"/>
  <circle cx="470" cy="90" r="120" fill="#15803d" opacity=".10"/>
  <circle cx="90" cy="380" r="90" fill="#15803d" opacity=".10"/>
  <ellipse cx="300" cy="392" rx="150" ry="14" fill="#000" opacity=".12"/>
  
  <path d="M245 100 C245 50 355 50 355 100" fill="none" stroke="#14532d" stroke-width="16" stroke-linecap="round"/>
  <rect x="170" y="90" width="260" height="290" rx="70" fill="#166534"/>
  <rect x="205" y="235" width="190" height="115" rx="26" fill="#15803d"/>
  <rect x="222" y="252" width="156" height="14" rx="7" fill="#14532d"/>
  <rect x="285" y="245" width="30" height="34" rx="8" fill="#bbf7d0"/>
  <path d="M215 150 Q300 190 385 150" fill="none" stroke="#14532d" stroke-width="7" stroke-linecap="round"/>
  <rect x="140" y="170" width="34" height="150" rx="16" fill="#14532d"/>
  <rect x="426" y="170" width="34" height="150" rx="16" fill="#14532d"/>

</svg>
