<svg xmlns="http://www.w3.org/2000/svg" viewBox="0 0 600 450" role="img">
  <defs>
    <linearGradient id="bg" x1="0" y1="0" x2="1" y2="1">
      <stop offset="0" stop-color="#e2e8f0"/><stop offset="1" stop-color="#cbd5e1"/>
    </linearGradient>
  </defs>
  <rect width="600" height="450" fill="url(#bg)"/>
  <circle cx="470" cy="90" r="120" fill="#475569" opacity=".10"/>
  <circle cx="90" cy="380" r="90" fill="#475569" opacity=".10"/>
  <ellipse cx="300" cy="392" rx="150" ry="14" fill="#000" opacity=".12"/>
  
  <rect x="80" y="145" width="440" height="255" rx="24" fill="#1e293b"/>
  <rect x="80" y="145" width="440" height="20" rx="10" fill="#334155"/>
  <rect x="110" y="175" width="32" height="34" rx="6" fill="#f1f5f9"/><rect x="148" y="175" width="32" height="34" rx="6" fill="#f1f5f9"/><rect x="186" y="175" width="32" height="34" rx="6" fill="#f1f5f9"/><rect x="224" y="175" width="32" height="34" rx="6" fill="#f1f5f9"/><rect x="262" y="175" width="32" height="34" rx="6" fill="#f1f5f9"/><rect x="300" y="175" width="32" height="34" rx="6" fill="#f1f5f9"/><rect x="338" y="175" width="32" height="34" rx="6" fill="#f1f5f9"/><rect x="376" y="175" width="32" height="34" rx="6" fill="#f1f5f9"/><rect x="414" y="175" width="32" height="34" rx="6" fill="#f1f5f9"/><rect x="452" y="175" width="32" height="34" rx="6" fill="#f1f5f9"/><rect x="110" y="217" width="32" height="34" rx="6" fill="#f1f5f9"/><rect x="148" y="217" width="32" height="34" rx="6" fill="#f1f5f9"/><rect x="186" y="217" width="32" height="34" rx="6" fill="#f1f5f9"/><rect x="224" y="217" width="32" height="34" rx="6" fill="#f1f5f9"/><rect x="262" y="217" width="32" height="34" rx="6" fill="#f1f5f9"/><rect x="300" y="217" width="32" height="34" rx="6" fill="#f1f5f9"/><rect x="338" y="217" width="32" height="34" rx="6" fill="#f1f5f9"/><rect x="376" y="217" width="32" height="34" rx="6" fill="#f1f5f9"/><rect x="414" y="217" width="32" height="34" rx="6" fill="#f1f5f9"/><rect x="452" y="217" width="32" height="34" rx="6" fill="#f1f5f9"/><rect x="110" y="259" width="32" height="34" rx="6" fill="#f1f5f9"/><rect x="148" y="259" width="32" height="34" rx="6" fill="#f1f5f9"/><rect x="186" y="259" width="32" height="34" rx="6" fill="#f1f5f9"/><rect x="224" y="259" width="32" height="34" rx="6" fill="#f1f5f9"/><rect x="262" y="259" width="32" height="34" rx="6" fill="#f1f5f9"/><rect x="300" y="259" width="32" height="34" rx="6" fill="#f1f5f9"/><rect x="338" y="259" width="32" height="34" rx="6" fill="#f1f5f9"/><rect x="376" y="259" width="32" height="34" rx="6" fill="#f1f5f9"/><rect x="414" y="259" width="32" height="34" rx="6" fill="#f1f5f9"/><rect x="452" y="259" width="32" height="34" rx="6" fill="#f1f5f9"/><rect x="150" y="343" width="300" height="34" rx="6" fill="#f1f5f9"/>
  <rect x="112" y="219" width="32" height="34" rx="6" fill="#f97316"/>

</svg>
